<svg xmlns="http://www.w3.org/2000/svg" viewBox="0 0 86.1 29.6" style="enable-background:new 0 0 86.1 29.6" xml:space="preserve"><path d="M0 0h86.1v29.6H0V0z" style="fill:#0d1117"/><path d="M16.4 10 12 22 7.5 10H3.8L10 25.9h4L20.2 10h-3.8zm22.4 0h3.4v15.9h-3.4V10zm.2-6.1c-.8.9-.7 2.2.1 3s2.1.9 3 .1c.4-.4.7-1 .7-1.5s-.2-1.1-.6-1.5c-.4-.4-1-.7-1.5-.7-.8-.1-1.3.1-1.7.6zm13.7 19c-1.3 0-2.6-.5-3.5-1.4-.9-1-1.4-2.1-1.4-3.6 0-1.4.5-2.6 1.4-3.6.9-.9 2.2-1.5 3.5-1.4 1.9 0 3.4.9 4.1 2.4l2.9-1.7c-1.3-2.5-4-4.1-7.1-4.1-2.4 0-4.4.8-6 2.4s-2.4 3.6-2.4 5.9c0 2.4.8 4.3 2.4 5.9 1.6 1.6 3.6 2.4 6 2.4 3.1 0 5.8-1.6 7.1-4.1l-2.9-1.7c-.6 1.6-2.2 2.6-4.1 2.6zM28.3 9.5c2.3 0 4.3.8 5.9 2.4 1.6 1.6 2.4 3.6 2.4 5.9 0 2.4-.8 4.3-2.4 5.9-1.6 1.6-3.6 2.4-5.9 2.4s-4.3-.8-5.9-2.4-2.4-3.6-2.4-5.9.8-4.3 2.4-5.9c1.5-1.6 3.5-2.4 5.9-2.4zm-3.6 12c2 1.9 5.1 1.9 7 0 .9-1 1.4-2.2 1.4-3.6s-.5-2.6-1.4-3.6c-2-1.9-5.1-1.9-7 0-.9 1-1.4 2.2-1.4 3.6s.5 2.6 1.4 3.6zM74.9 12c1.5 1.6 2.2 3.6 2.2 5.9 0 .5 0 1-.1 1.4H64.4c.5 2.4 2.4 3.7 5.1 3.7 1.8 0 3.2-.7 4.1-2l2.8 1.7c-1.6 2.3-3.9 3.5-6.9 3.5-2.6 0-4.7-.8-6.2-2.4-1.6-1.6-2.4-3.6-2.4-6s.8-4.4 2.3-5.9c1.6-1.6 3.6-2.4 6-2.4 2.3.1 4.2.9 5.7 2.5zm-5.7.7c-2.5 0-4.3 1.5-4.8 3.9h9.4c-.5-2.6-2.3-3.9-4.6-3.9zm9.7 13.1h.3v-1.9h.6v-.2h-1.6v.2h.7v1.9zm3.1 0h.3v-2.1h-.5l-.7 1.6-.6-1.6h-.4v2.1h.3v-1.7l.7 1.7h.1l.7-1.7.1 1.7z" style="fill:#fff"/></svg>